<mxfile host="app.diagrams.net" modified="2021-01-05T16:00:00.422Z" agent="5.0 (Macintosh; Intel Mac OS X 10_11_6) AppleWebKit/537.36 (KHTML, like Gecko) Chrome/87.0.4280.88 Safari/537.36" etag="t1lvYVK_JzqiM9CBXfNM" version="14.1.8" type="github">
  <diagram name="Page-1" id="03018318-947c-dd8e-b7a3-06fadd420f32">
    <mxGraphModel dx="1417" dy="857" grid="1" gridSize="10" guides="1" tooltips="1" connect="1" arrows="1" fold="1" page="1" pageScale="1" pageWidth="1100" pageHeight="850" background="#ffffff" math="0" shadow="0">
      <root>
        <mxCell id="0" />
        <mxCell id="1" parent="0" />
        <mxCell id="677b7b8949515195-1" value="" style="whiteSpace=wrap;html=1;rounded=0;shadow=0;labelBackgroundColor=none;strokeColor=#000000;strokeWidth=1;fillColor=none;fontFamily=Verdana;fontSize=12;fontColor=#000000;align=center;comic=1;" parent="1" vertex="1">
          <mxGeometry x="20" y="20" width="1060" height="1540" as="geometry" />
        </mxCell>
        <mxCell id="677b7b8949515195-2" value="LOGO" style="whiteSpace=wrap;html=1;rounded=0;shadow=0;labelBackgroundColor=none;strokeWidth=1;fontFamily=Verdana;fontSize=28;align=center;comic=1;" parent="1" vertex="1">
          <mxGeometry x="40" y="60" width="190" height="50" as="geometry" />
        </mxCell>
        <mxCell id="677b7b8949515195-9" value="" style="line;strokeWidth=1;html=1;rounded=0;shadow=0;labelBackgroundColor=none;fillColor=none;fontFamily=Verdana;fontSize=14;fontColor=#000000;align=center;comic=1;" parent="1" vertex="1">
          <mxGeometry x="20" y="140" width="1060" height="10" as="geometry" />
        </mxCell>
        <mxCell id="677b7b8949515195-16" value="" style="verticalLabelPosition=bottom;shadow=0;dashed=0;align=center;html=1;verticalAlign=top;strokeWidth=1;shape=mxgraph.mockup.graphics.simpleIcon;strokeColor=#999999;rounded=0;labelBackgroundColor=none;fontFamily=Verdana;fontSize=14;fontColor=#000000;comic=1;" parent="1" vertex="1">
          <mxGeometry x="30" y="153" width="1040" height="400" as="geometry" />
        </mxCell>
        <mxCell id="tIgRFbxVx4so76dlcOpG-5" value="Imagen de&amp;nbsp; bienvenida" style="text;html=1;strokeColor=none;fillColor=none;align=center;verticalAlign=middle;whiteSpace=wrap;rounded=0;" vertex="1" parent="1">
          <mxGeometry x="485" y="260" width="130" height="20" as="geometry" />
        </mxCell>
        <mxCell id="tIgRFbxVx4so76dlcOpG-6" value="" style="group;strokeColor=#82b366;fillColor=#00CC00;" vertex="1" connectable="0" parent="1">
          <mxGeometry x="980" y="70" width="40" height="40" as="geometry" />
        </mxCell>
        <mxCell id="tIgRFbxVx4so76dlcOpG-1" value="" style="verticalLabelPosition=bottom;shadow=0;dashed=0;align=center;html=1;verticalAlign=top;strokeWidth=1;shape=mxgraph.mockup.misc.shoppingCart;strokeColor=#999999;" vertex="1" parent="tIgRFbxVx4so76dlcOpG-6">
          <mxGeometry x="11.428571428571425" y="4.444444444444443" width="28.571428571428562" height="35.55555555555554" as="geometry" />
        </mxCell>
        <mxCell id="tIgRFbxVx4so76dlcOpG-4" value="" style="shape=image;html=1;verticalAlign=top;verticalLabelPosition=bottom;labelBackgroundColor=#ffffff;imageAspect=0;aspect=fixed;image=https://cdn0.iconfinder.com/data/icons/windows8_icons/26/0_filled.png" vertex="1" parent="tIgRFbxVx4so76dlcOpG-6">
          <mxGeometry width="12.444444444444441" height="12.444444444444441" as="geometry" />
        </mxCell>
        <mxCell id="tIgRFbxVx4so76dlcOpG-18" value="" style="group" vertex="1" connectable="0" parent="1">
          <mxGeometry x="30" y="791" width="1040" height="180" as="geometry" />
        </mxCell>
        <mxCell id="tIgRFbxVx4so76dlcOpG-12" value="&lt;div style=&quot;text-align: justify&quot;&gt;Aperitivos&lt;/div&gt;" style="whiteSpace=wrap;html=1;rounded=0;shadow=0;labelBackgroundColor=none;strokeWidth=1;fillColor=none;fontFamily=Verdana;fontSize=12;align=center;verticalAlign=top;spacing=10;comic=1;" vertex="1" parent="tIgRFbxVx4so76dlcOpG-18">
          <mxGeometry width="1040" height="180" as="geometry" />
        </mxCell>
        <mxCell id="tIgRFbxVx4so76dlcOpG-13" value="" style="whiteSpace=wrap;html=1;aspect=fixed;labelBackgroundColor=#00CC00;fillColor=#00CC00;fontColor=#009900;" vertex="1" parent="tIgRFbxVx4so76dlcOpG-18">
          <mxGeometry x="75" y="40" width="120" height="120" as="geometry" />
        </mxCell>
        <mxCell id="tIgRFbxVx4so76dlcOpG-14" value="" style="whiteSpace=wrap;html=1;aspect=fixed;labelBackgroundColor=#00CC00;fillColor=#00CC00;fontColor=#009900;" vertex="1" parent="tIgRFbxVx4so76dlcOpG-18">
          <mxGeometry x="268" y="40" width="120" height="120" as="geometry" />
        </mxCell>
        <mxCell id="tIgRFbxVx4so76dlcOpG-15" value="" style="whiteSpace=wrap;html=1;aspect=fixed;labelBackgroundColor=#00CC00;fillColor=#00CC00;fontColor=#009900;" vertex="1" parent="tIgRFbxVx4so76dlcOpG-18">
          <mxGeometry x="460" y="40" width="120" height="120" as="geometry" />
        </mxCell>
        <mxCell id="tIgRFbxVx4so76dlcOpG-16" value="" style="whiteSpace=wrap;html=1;aspect=fixed;labelBackgroundColor=#00CC00;fillColor=#00CC00;fontColor=#009900;" vertex="1" parent="tIgRFbxVx4so76dlcOpG-18">
          <mxGeometry x="653" y="40" width="120" height="120" as="geometry" />
        </mxCell>
        <mxCell id="tIgRFbxVx4so76dlcOpG-17" value="" style="whiteSpace=wrap;html=1;aspect=fixed;labelBackgroundColor=#00CC00;fillColor=#00CC00;fontColor=#009900;" vertex="1" parent="tIgRFbxVx4so76dlcOpG-18">
          <mxGeometry x="845" y="40" width="120" height="120" as="geometry" />
        </mxCell>
        <mxCell id="tIgRFbxVx4so76dlcOpG-19" value="" style="group" vertex="1" connectable="0" parent="1">
          <mxGeometry x="30" y="990" width="1040" height="180" as="geometry" />
        </mxCell>
        <mxCell id="tIgRFbxVx4so76dlcOpG-20" value="&lt;div style=&quot;text-align: justify&quot;&gt;Postres&lt;/div&gt;" style="whiteSpace=wrap;html=1;rounded=0;shadow=0;labelBackgroundColor=none;strokeWidth=1;fillColor=none;fontFamily=Verdana;fontSize=12;align=center;verticalAlign=top;spacing=10;comic=1;" vertex="1" parent="tIgRFbxVx4so76dlcOpG-19">
          <mxGeometry width="1040" height="180" as="geometry" />
        </mxCell>
        <mxCell id="tIgRFbxVx4so76dlcOpG-21" value="" style="whiteSpace=wrap;html=1;aspect=fixed;labelBackgroundColor=#00CC00;fillColor=#00CC00;fontColor=#009900;" vertex="1" parent="tIgRFbxVx4so76dlcOpG-19">
          <mxGeometry x="75" y="40" width="120" height="120" as="geometry" />
        </mxCell>
        <mxCell id="tIgRFbxVx4so76dlcOpG-22" value="" style="whiteSpace=wrap;html=1;aspect=fixed;labelBackgroundColor=#00CC00;fillColor=#00CC00;fontColor=#009900;" vertex="1" parent="tIgRFbxVx4so76dlcOpG-19">
          <mxGeometry x="268" y="40" width="120" height="120" as="geometry" />
        </mxCell>
        <mxCell id="tIgRFbxVx4so76dlcOpG-23" value="" style="whiteSpace=wrap;html=1;aspect=fixed;labelBackgroundColor=#00CC00;fillColor=#00CC00;fontColor=#009900;" vertex="1" parent="tIgRFbxVx4so76dlcOpG-19">
          <mxGeometry x="460" y="40" width="120" height="120" as="geometry" />
        </mxCell>
        <mxCell id="tIgRFbxVx4so76dlcOpG-24" value="" style="whiteSpace=wrap;html=1;aspect=fixed;labelBackgroundColor=#00CC00;fillColor=#00CC00;fontColor=#009900;" vertex="1" parent="tIgRFbxVx4so76dlcOpG-19">
          <mxGeometry x="653" y="40" width="120" height="120" as="geometry" />
        </mxCell>
        <mxCell id="tIgRFbxVx4so76dlcOpG-25" value="" style="whiteSpace=wrap;html=1;aspect=fixed;labelBackgroundColor=#00CC00;fillColor=#00CC00;fontColor=#009900;" vertex="1" parent="tIgRFbxVx4so76dlcOpG-19">
          <mxGeometry x="845" y="40" width="120" height="120" as="geometry" />
        </mxCell>
        <mxCell id="tIgRFbxVx4so76dlcOpG-26" value="" style="group" vertex="1" connectable="0" parent="1">
          <mxGeometry x="30" y="1190" width="1040" height="180" as="geometry" />
        </mxCell>
        <mxCell id="tIgRFbxVx4so76dlcOpG-27" value="&lt;div style=&quot;text-align: justify&quot;&gt;PanaderÃ­a&lt;/div&gt;" style="whiteSpace=wrap;html=1;rounded=0;shadow=0;labelBackgroundColor=none;strokeWidth=1;fillColor=none;fontFamily=Verdana;fontSize=12;align=center;verticalAlign=top;spacing=10;comic=1;" vertex="1" parent="tIgRFbxVx4so76dlcOpG-26">
          <mxGeometry width="1040" height="180" as="geometry" />
        </mxCell>
        <mxCell id="tIgRFbxVx4so76dlcOpG-28" value="" style="whiteSpace=wrap;html=1;aspect=fixed;labelBackgroundColor=#00CC00;fillColor=#00CC00;fontColor=#009900;" vertex="1" parent="tIgRFbxVx4so76dlcOpG-26">
          <mxGeometry x="75" y="40" width="120" height="120" as="geometry" />
        </mxCell>
        <mxCell id="tIgRFbxVx4so76dlcOpG-29" value="" style="whiteSpace=wrap;html=1;aspect=fixed;labelBackgroundColor=#00CC00;fillColor=#00CC00;fontColor=#009900;" vertex="1" parent="tIgRFbxVx4so76dlcOpG-26">
          <mxGeometry x="268" y="40" width="120" height="120" as="geometry" />
        </mxCell>
        <mxCell id="tIgRFbxVx4so76dlcOpG-30" value="" style="whiteSpace=wrap;html=1;aspect=fixed;labelBackgroundColor=#00CC00;fillColor=#00CC00;fontColor=#009900;" vertex="1" parent="tIgRFbxVx4so76dlcOpG-26">
          <mxGeometry x="460" y="40" width="120" height="120" as="geometry" />
        </mxCell>
        <mxCell id="tIgRFbxVx4so76dlcOpG-31" value="" style="whiteSpace=wrap;html=1;aspect=fixed;labelBackgroundColor=#00CC00;fillColor=#00CC00;fontColor=#009900;" vertex="1" parent="tIgRFbxVx4so76dlcOpG-26">
          <mxGeometry x="653" y="40" width="120" height="120" as="geometry" />
        </mxCell>
        <mxCell id="tIgRFbxVx4so76dlcOpG-32" value="" style="whiteSpace=wrap;html=1;aspect=fixed;labelBackgroundColor=#00CC00;fillColor=#00CC00;fontColor=#009900;" vertex="1" parent="tIgRFbxVx4so76dlcOpG-26">
          <mxGeometry x="845" y="40" width="120" height="120" as="geometry" />
        </mxCell>
        <mxCell id="tIgRFbxVx4so76dlcOpG-35" value="" style="html=1;verticalLabelPosition=bottom;align=center;labelBackgroundColor=#ffffff;verticalAlign=top;strokeWidth=2;strokeColor=#0080F0;shadow=0;dashed=0;shape=mxgraph.ios7.icons.looking_glass;fontColor=#009900;fillColor=#FF9933;" vertex="1" parent="1">
          <mxGeometry x="900" y="75" width="30" height="30" as="geometry" />
        </mxCell>
        <mxCell id="tIgRFbxVx4so76dlcOpG-36" value="" style="group" vertex="1" connectable="0" parent="1">
          <mxGeometry x="361.9976923076923" y="80" width="375.3846153846154" height="20" as="geometry" />
        </mxCell>
        <mxCell id="677b7b8949515195-11" value="Inicio" style="text;html=1;points=[];align=left;verticalAlign=top;spacingTop=-4;fontSize=14;fontFamily=Verdana;labelBackgroundColor=#00CC00;" parent="tIgRFbxVx4so76dlcOpG-36" vertex="1">
          <mxGeometry width="34.03846153846154" height="20" as="geometry" />
        </mxCell>
        <mxCell id="677b7b8949515195-12" value="Productos" style="text;html=1;points=[];align=left;verticalAlign=top;spacingTop=-4;fontSize=14;fontFamily=Verdana;labelBackgroundColor=#00CC00;" parent="tIgRFbxVx4so76dlcOpG-36" vertex="1">
          <mxGeometry x="113.69230769230768" width="34.03846153846154" height="20" as="geometry" />
        </mxCell>
        <mxCell id="677b7b8949515195-13" value="Sobre Nostros" style="text;html=1;points=[];align=left;verticalAlign=top;spacingTop=-4;fontSize=14;fontFamily=Verdana" parent="tIgRFbxVx4so76dlcOpG-36" vertex="1">
          <mxGeometry x="215.69230769230768" width="58.432692307692314" height="20" as="geometry" />
        </mxCell>
        <mxCell id="tIgRFbxVx4so76dlcOpG-2" value="Contacto" style="text;html=1;points=[];align=left;verticalAlign=top;spacingTop=-4;fontSize=14;fontFamily=Verdana" vertex="1" parent="tIgRFbxVx4so76dlcOpG-36">
          <mxGeometry x="341.34615384615387" width="34.03846153846154" height="20" as="geometry" />
        </mxCell>
        <mxCell id="tIgRFbxVx4so76dlcOpG-37" value="" style="group" vertex="1" connectable="0" parent="1">
          <mxGeometry x="30" y="570" width="1040" height="180" as="geometry" />
        </mxCell>
        <mxCell id="677b7b8949515195-15" value="&lt;div style=&quot;text-align: justify&quot;&gt;Productos Recomendados&lt;/div&gt;" style="whiteSpace=wrap;html=1;rounded=0;shadow=0;labelBackgroundColor=none;strokeWidth=1;fillColor=none;fontFamily=Verdana;fontSize=12;align=center;verticalAlign=top;spacing=10;comic=1;" parent="tIgRFbxVx4so76dlcOpG-37" vertex="1">
          <mxGeometry width="1040" height="180" as="geometry" />
        </mxCell>
        <mxCell id="tIgRFbxVx4so76dlcOpG-7" value="" style="whiteSpace=wrap;html=1;aspect=fixed;labelBackgroundColor=#00CC00;fillColor=#00CC00;fontColor=#009900;" vertex="1" parent="tIgRFbxVx4so76dlcOpG-37">
          <mxGeometry x="75" y="40" width="120" height="120" as="geometry" />
        </mxCell>
        <mxCell id="tIgRFbxVx4so76dlcOpG-8" value="" style="whiteSpace=wrap;html=1;aspect=fixed;labelBackgroundColor=#00CC00;fillColor=#00CC00;fontColor=#009900;" vertex="1" parent="tIgRFbxVx4so76dlcOpG-37">
          <mxGeometry x="268" y="40" width="120" height="120" as="geometry" />
        </mxCell>
        <mxCell id="tIgRFbxVx4so76dlcOpG-9" value="" style="whiteSpace=wrap;html=1;aspect=fixed;labelBackgroundColor=#00CC00;fillColor=#00CC00;fontColor=#009900;" vertex="1" parent="tIgRFbxVx4so76dlcOpG-37">
          <mxGeometry x="460" y="40" width="120" height="120" as="geometry" />
        </mxCell>
        <mxCell id="tIgRFbxVx4so76dlcOpG-10" value="" style="whiteSpace=wrap;html=1;aspect=fixed;labelBackgroundColor=#00CC00;fillColor=#00CC00;fontColor=#009900;" vertex="1" parent="tIgRFbxVx4so76dlcOpG-37">
          <mxGeometry x="653" y="40" width="120" height="120" as="geometry" />
        </mxCell>
        <mxCell id="tIgRFbxVx4so76dlcOpG-11" value="" style="whiteSpace=wrap;html=1;aspect=fixed;labelBackgroundColor=#00CC00;fillColor=#00CC00;fontColor=#009900;" vertex="1" parent="tIgRFbxVx4so76dlcOpG-37">
          <mxGeometry x="845" y="40" width="120" height="120" as="geometry" />
        </mxCell>
        <mxCell id="tIgRFbxVx4so76dlcOpG-38" value="" style="rounded=0;whiteSpace=wrap;html=1;labelBackgroundColor=#00CC00;fontColor=#009900;fillColor=none;" vertex="1" parent="1">
          <mxGeometry x="30" y="1410" width="1040" height="140" as="geometry" />
        </mxCell>
        <mxCell id="tIgRFbxVx4so76dlcOpG-42" value="" style="group" vertex="1" connectable="0" parent="1">
          <mxGeometry x="430" y="1460" width="240" height="40" as="geometry" />
        </mxCell>
        <mxCell id="tIgRFbxVx4so76dlcOpG-39" value="" style="shape=image;html=1;verticalAlign=top;verticalLabelPosition=bottom;labelBackgroundColor=#ffffff;imageAspect=0;aspect=fixed;image=https://cdn3.iconfinder.com/data/icons/picons-social/57/46-facebook-128.png;fillColor=none;fontColor=#009900;" vertex="1" parent="tIgRFbxVx4so76dlcOpG-42">
          <mxGeometry width="40" height="40" as="geometry" />
        </mxCell>
        <mxCell id="tIgRFbxVx4so76dlcOpG-40" value="" style="shape=image;html=1;verticalAlign=top;verticalLabelPosition=bottom;labelBackgroundColor=#ffffff;imageAspect=0;aspect=fixed;image=https://cdn1.iconfinder.com/data/icons/social-media-circle-7/512/Circled_Instagram_svg-128.png;fillColor=none;fontColor=#009900;" vertex="1" parent="tIgRFbxVx4so76dlcOpG-42">
          <mxGeometry x="100" width="40" height="40" as="geometry" />
        </mxCell>
        <mxCell id="tIgRFbxVx4so76dlcOpG-41" value="" style="shape=image;html=1;verticalAlign=top;verticalLabelPosition=bottom;labelBackgroundColor=#ffffff;imageAspect=0;aspect=fixed;image=https://cdn1.iconfinder.com/data/icons/social-media-circle-7/512/Circled_Pinterest_svg-128.png;fillColor=none;fontColor=#009900;" vertex="1" parent="tIgRFbxVx4so76dlcOpG-42">
          <mxGeometry x="200" width="40" height="40" as="geometry" />
        </mxCell>
      </root>
    </mxGraphModel>
  </diagram>
</mxfile>
